<?xml version="1.0" encoding="utf-8"?>
<!-- Generator: Adobe Illustrator 21.0.2, SVG Export Plug-In . SVG Version: 6.00 Build 0)  -->
<svg class="logo" version="1.1" id="Layer_1" xmlns="http://www.w3.org/2000/svg" xmlns:xlink="http://www.w3.org/1999/xlink" x="0px" y="0px"
	 viewBox="0 0 100 100" style="enable-background:new 0 0 100 100;" xml:space="preserve">
<path fill="#58bf94" d="M72.8,30.2c-2,0-3.8,0.2-5.6,0.7c-1.1-3.3-4.3-5.8-8-5.8H40.8c-3.8,0-7,2.5-8.1,6c-1.8-0.5-3.6-0.7-5.6-0.7
	C14.9,30.5,5,40.4,5,52.6c0,12.2,9.9,22.2,22.2,22.2c12.2,0,22.2-9.9,22.2-22.2c0-0.8,0-1.5-0.1-2.3h1.5c-0.1,0.7-0.1,1.4-0.1,2.1
	c0,12.2,9.9,22.2,22.2,22.2c12.2,0,22.2-9.9,22.2-22.2C95,40.2,85.1,30.2,72.8,30.2z M72.8,68.6c-8.9,0-16.2-7.3-16.2-16.2
	c0-3.8,1.3-7.4,3.6-10.1c1.7-2.2,4-3.9,6.6-4.9c1.8-0.7,3.9-1.1,6-1.1c8.9,0,16.2,7.3,16.2,16.2C89,61.3,81.8,68.6,72.8,68.6z
	 M27.2,68.8c-8.9,0-16.2-7.3-16.2-16.2c0-8.9,7.3-16.2,16.2-16.2c2.2,0,4.2,0.4,6.1,1.2c2.5,1,4.6,2.6,6.3,4.6h0
	c2.4,2.8,3.8,6.4,3.8,10.4C43.3,61.6,36.1,68.8,27.2,68.8z M40.8,31.2h18.3c1.2,0,2.3,0.9,2.5,2.1c-1.5,0.9-2.8,1.9-4.1,3.1H42.2
	c-1.2-1.1-2.5-2-3.8-2.8C38.4,32.2,39.5,31.2,40.8,31.2z M47.7,44.4c-0.3-0.7-0.6-1.4-0.9-2h6.3c-0.3,0.7-0.6,1.3-0.9,2c0,0,0,0,0,0
	L47.7,44.4C47.7,44.4,47.7,44.4,47.7,44.4z M29.2,62.6c0,1.1-0.9,2-2,2c-6.6,0-12-5.4-12-12c0-1.1,0.9-2,2-2c1.1,0,2,0.9,2,2
	c0,0.8,0.1,1.6,0.4,2.4c0,0,0,0,0,0c0.8,2.5,2.7,4.5,5.3,5.3c0,0,0,0,0,0c0.7,0.2,1.5,0.4,2.4,0.4C28.3,60.6,29.2,61.5,29.2,62.6z"
	/>
</svg>
